<svg width="23" height="36" viewBox="0 0 23 36" fill="none" xmlns="http://www.w3.org/2000/svg">
<path d="M21.4453 13.3828C21.9141 15.0234 21.9141 18.5391 21.9141 18.5391C21.9141 18.5391 21.9141 22.0156 21.4453 23.6953C21.2109 24.6328 20.4688 25.3359 19.5703 25.5703C17.8906 26 11.25 26 11.25 26C11.25 26 4.57031 26 2.89062 25.5703C1.99219 25.3359 1.25 24.6328 1.01562 23.6953C0.546875 22.0156 0.546875 18.5391 0.546875 18.5391C0.546875 18.5391 0.546875 15.0234 1.01562 13.3828C1.25 12.4453 1.99219 11.7031 2.89062 11.4688C4.57031 11 11.25 11 11.25 11C11.25 11 17.8906 11 19.5703 11.4688C20.4688 11.7031 21.2109 12.4453 21.4453 13.3828ZM9.0625 21.7031L14.6094 18.5391L9.0625 15.375V21.7031Z" fill="#9B9B9B"/>
</svg>
