<svg width="20" height="36" viewBox="0 0 20 36" fill="none" xmlns="http://www.w3.org/2000/svg">
<path d="M17.9297 14.4375C17.9297 14.6328 17.9297 14.7891 17.9297 14.9844C17.9297 20.4141 13.8281 26.625 6.28906 26.625C3.94531 26.625 1.79688 25.9609 0 24.7891C0.3125 24.8281 0.625 24.8672 0.976562 24.8672C2.89062 24.8672 4.64844 24.2031 6.05469 23.1094C4.25781 23.0703 2.73438 21.8984 2.22656 20.2578C2.5 20.2969 2.73438 20.3359 3.00781 20.3359C3.35938 20.3359 3.75 20.2578 4.0625 20.1797C2.1875 19.7891 0.78125 18.1484 0.78125 16.1562V16.1172C1.32812 16.4297 1.99219 16.5859 2.65625 16.625C1.52344 15.8828 0.820312 14.6328 0.820312 13.2266C0.820312 12.4453 1.01562 11.7422 1.36719 11.1562C3.39844 13.6172 6.44531 15.2578 9.84375 15.4531C9.76562 15.1406 9.72656 14.8281 9.72656 14.5156C9.72656 12.25 11.5625 10.4141 13.8281 10.4141C15 10.4141 16.0547 10.8828 16.8359 11.7031C17.7344 11.5078 18.6328 11.1562 19.4141 10.6875C19.1016 11.6641 18.4766 12.4453 17.6172 12.9531C18.4375 12.875 19.2578 12.6406 19.9609 12.3281C19.4141 13.1484 18.7109 13.8516 17.9297 14.4375Z" fill="#9B9B9B"/>
</svg>
